#!OML:ASF H:\BreakDance\Project 1\Capture day 1\Session 1\Male.ASF
:FULLY-SPECIFIED
:DEGREES
179
root 12.8219 16.0125 1.40834 -141.023 -89.3441 140.268
lowerback -6.38124 1.09566 0.847743
upperback 3.66817 1.50496 -2.18594
thorax 7.51831 0.830076 -2.58422
lowerneck -5.19596 -1.39825 -0.283205
upperneck 8.1995 -2.23643 3.69235
head 3.63374 -0.986216 1.16004
rclavicle -9.88954e-015 -5.56597e-015
rhumerus -32.0009 4.25109 -88.8336
rradius 53.0254
rwrist 12.8214
rhand -33.6653 -27.0045
rfingers 7.12502
rthumb -6.85644 -56.8735
lclavicle -9.88954e-015 -5.56597e-015
lhumerus -28.5947 -8.68977 82.7555
lradius 54.8627
lwrist -9.71386
lhand -26.9268 -23.4056
lfingers 7.12502
lthumb -0.349379 6.57388
rfemur -13.1234 4.37624 13.4543
rtibia 43.7109
rfoot -26.7953 -20.228
rtoes -6.15133
lfemur -15.9296 2.29157 -11.2315
ltibia 42.4806
lfoot -30.9516 18.3514
ltoes -26.5376
180
root 12.8253 16.0131 1.40856 -142.008 -89.3395 141.286
lowerback -6.32021 1.11576 0.894039
upperback 3.62451 1.52933 -2.22397
thorax 7.44009 0.844583 -2.64805
lowerneck -5.11706 -1.40599 -0.198427
upperneck 8.17269 -2.24874 3.64682
head 3.60693 -0.992835 1.12933
rclavicle 1.5704e-014 1.59028e-015
rhumerus -32.0264 4.26271 -88.8689
rradius 53.0012
rwrist 12.747
rhand -33.7088 -27.1232
rfingers 7.12502
rthumb -6.89852 -56.9908
lclavicle 1.5704e-014 1.59028e-015
lhumerus -28.6251 -8.76428 82.7009
lradius 54.85
lwrist -9.64919
lhand -26.8498 -23.4248
lfingers 7.12502
lthumb -0.275003 6.55476
rfemur -13.1714 4.46271 13.4701
rtibia 43.708
rfoot -26.8641 -20.2354
rtoes -5.86835
lfemur -15.9766 2.30572 -11.2265
ltibia 42.4808
lfoot -30.9536 18.3548
ltoes -26.5431
181
root 12.829 16.014 1.40846 -144.095 -89.331 143.411
lowerback -6.26227 1.12445 0.921536
upperback 3.59395 1.53867 -2.23466
thorax 7.37545 0.850193 -2.67434
lowerneck -5.07834 -1.40043 -0.170254
upperneck 8.15527 -2.23913 3.60877
head 3.59184 -0.989316 1.11218
rclavicle 5.61567e-015 -2.22639e-014
rhumerus -32.0192 4.31111 -88.8779
rradius 52.9705
rwrist 12.7155
rhand -33.7931 -27.3659
rfingers 7.12502
rthumb -6.9798 -57.2308
lclavicle 5.61567e-015 -2.22639e-014
lhumerus -28.6315 -8.77079 82.6699
lradius 54.8308
lwrist -9.58856
lhand -26.7838 -23.4426
lfingers 7.12502
lthumb -0.211312 6.53701
rfemur -13.2274 4.5906 13.5015
rtibia 43.705
rfoot -26.939 -20.2659
rtoes -5.53271
lfemur -16.0296 2.32912 -11.2098
ltibia 42.4819
lfoot -30.9442 18.3803
ltoes -26.59
182
root 12.8331 16.0152 1.40798 -147.034 -89.3233 146.388
lowerback -6.2029 1.15964 0.981238
upperback 3.56143 1.58173 -2.26525
thorax 7.31159 0.87444 -2.73557
lowerneck -5.02634 -1.41252 -0.127361
upperneck 8.1383 -2.25749 3.60005
head 3.57532 -0.998323 1.10089
rclavicle -3.97569e-016 2.70347e-014
rhumerus -32.0278 4.24479 -88.892
rradius 52.943
rwrist 12.7534
rhand -33.8951 -27.6966
rfingers 7.12502
rthumb -7.07832 -57.5582
lclavicle -3.97569e-016 2.70347e-014
lhumerus -28.6288 -8.85925 82.6354
lradius 54.8058
lwrist -9.52572
lhand -26.7393 -23.462
lfingers 7.12502
lthumb -0.168333 6.51766
rfemur -13.2836 4.75127 13.5505
rtibia 43.6997
rfoot -27.0247 -20.3124
rtoes -5.13504
lfemur -16.088 2.35523 -11.1799
ltibia 42.4861
lfoot -30.9244 18.4226
ltoes -26.657
183
root 12.8373 16.0163 1.40725 -150.516 -89.3221 149.905
lowerback -6.15333 1.18446 1.02404
upperback 3.54672 1.61105 -2.26803
thorax 7.27028 0.890651 -2.75959
lowerneck -5.02243 -1.41596 -0.152735
upperneck 8.14155 -2.26132 3.61421
head 3.57647 -1.00044 1.10993
rclavicle -6.4605e-016 1.43125e-014
rhumerus -32.0009 4.20725 -88.8751
rradius 52.9054
rwrist 12.8151
rhand -33.9906 -28.055
rfingers 7.12502
rthumb -7.1705 -57.9135
lclavicle -6.4605e-016 1.43125e-014
lhumerus -28.6004 -8.8903 82.6324
lradius 54.7652
lwrist -9.49017
lhand -26.72 -23.4996
lfingers 7.12502
lthumb -0.149673 6.48006
rfemur -13.3328 4.92161 13.6147
rtibia 43.6917
rfoot -27.1155 -20.37
rtoes -4.73008
lfemur -16.1499 2.38189 -11.1367
ltibia 42.494
lfoot -30.8909 18.4679
ltoes -26.7337
184
root 12.8414 16.0172 1.40644 -153.688 -89.3326 153.108
lowerback -6.11832 1.20206 1.05131
upperback 3.54698 1.63145 -2.25672
thorax 7.25194 0.901619 -2.76096
lowerneck -5.03606 -1.41294 -0.205152
upperneck 8.14975 -2.25575 3.64336
head 3.58331 -0.997842 1.12917
rclavicle 6.4605e-016 -1.43125e-014
rhumerus -31.9483 4.17299 -88.842
rradius 52.8549
rwrist 12.8713
rhand -34.0706 -28.3074
rfingers 7.12502
rthumb -7.24776 -58.1633
lclavicle 6.4605e-016 -1.43125e-014
lhumerus -28.5411 -8.89427 82.6475
lradius 54.6953
lwrist -9.48579
lhand -26.7191 -23.5624
lfingers 7.12502
lthumb -0.148807 6.41729
rfemur -13.3712 5.06909 13.6821
rtibia 43.6811
rfoot -27.1864 -20.4451
rtoes -4.43909
lfemur -16.2124 2.40706 -11.0889
ltibia 42.5057
lfoot -30.851 18.4874
ltoes -26.7819
